<?xml version="1.0" encoding="utf-8"?>
<!-- Generator: Adobe Illustrator 24.1.2, SVG Export Plug-In . SVG Version: 6.00 Build 0)  -->
<svg version="1.1" id="Слой_1" xmlns="http://www.w3.org/2000/svg" xmlns:xlink="http://www.w3.org/1999/xlink" x="0px" y="0px"
	 viewBox="0 0 512 490" style="enable-background:new 0 0 512 490;" xml:space="preserve">
<style type="text/css">
	.st0{fill:#626262;}
</style>
<g>
	<g>
		<path class="st0" d="M503.6,474.4h-4c-3.1-8.8-9.1-28.3-9.1-45.2s6-36.5,9.1-45.2h4c4.1,0,7.5-3.3,7.5-7.5c0-4.1-3.3-7.5-7.5-7.5
			h-56.5c4.1,0,7.5-3.3,7.5-7.5c0-4.1-3.3-7.5-7.5-7.5h-0.8c-7.4-7.8-13.6-16.6-18.6-26.2c-1.9-3.7-6.4-5.1-10.1-3.2
			c-3.7,1.9-5.1,6.4-3.2,10.1c3.5,6.8,7.6,13.3,12.3,19.4H80.2c-20.5,0-37.1-16.6-37.1-37.1v-83.7c0-20.5,16.6-37.1,37.1-37.1h219.2
			v27c0,4.4,2.7,8.3,6.8,9.9c2.9,1.3,8.2,0.8,11.7-2.9l8.2-9.3l8.2,9.3c2.9,3.3,7.5,4.5,11.7,2.9c4.2-1.6,6.8-5.4,6.8-9.9v-27h74
			c-17.3,22.6-26.6,50.1-26.6,78.9c0,7.7,0.7,15.3,2,22.8c0.6,3.6,3.8,6.2,7.4,6.2c0.4,0,0.9,0,1.3-0.1c4.1-0.7,6.8-4.6,6.1-8.7
			c-1.2-6.6-1.8-13.4-1.8-20.2c0-29.6,11.1-57.5,31.3-78.9h0.8c4.1,0,7.5-3.3,7.5-7.5c0-4.1-3.3-7.5-7.5-7.5h53.9
			c4.1,0,7.5-3.3,7.5-7.5c0-4.1-3.3-7.5-7.5-7.5h-3.1c-2.8-8.1-8-25.3-8-40.3c0-15,5.2-32.2,8-40.3h3.1c4.1,0,7.5-3.3,7.5-7.5
			c0-4.1-3.3-7.5-7.5-7.5h-8.5c0,0,0,0,0,0h-46.4c3,0,5.8-1.8,6.9-4.7c1.1-2.8,0.5-6.1-1.7-8.2c-6.1-5.9-9.4-13.8-9.4-22.3
			s3.4-16.4,9.4-22.3c4.3-4,2-13-5.2-12.8H108.6c-4.1,0-7.5,3.3-7.5,7.5s3.4,7.5,7.5,7.5h323c-3,6.2-4.6,13.1-4.6,20.2
			s1.6,14,4.6,20.2h-396c-11.1,0-20.2-9.1-20.2-20.2s9.1-20.2,20.2-20.2h34.9c4.1,0,7.5-3.3,7.5-7.5s-3.4-7.5-7.5-7.5H35.6
			C16.2,0.3,0.5,16.1,0.5,35.5s15.8,35.1,35.2,35.1h69.8c-30.5,0-55.3,24.8-55.3,55.3s24.8,55.3,55.3,55.3H80.2
			c-28.7,0-52.1,23.4-52.1,52.1v83.7c0,28.7,23.4,52.1,52.1,52.1H60.3c-33.2,0-60.2,27-60.2,60.2s27,60.2,60.2,60.2h314.8
			c4.1,0,7.5-3.3,7.5-7.5c0-4.1-3.3-7.5-7.5-7.5H60.3c-25,0-45.2-20.3-45.2-45.2s20.3-45.2,45.2-45.2h423.5
			c-3.5,10.9-8.3,28.8-8.3,45.2s4.8,34.3,8.3,45.2h-70.3c-4.1,0-7.5,3.3-7.5,7.5c0,4.1,3.3,7.5,7.5,7.5h90.1c4.1,0,7.5-3.3,7.5-7.5
			C511.1,477.7,507.8,474.4,503.6,474.4L503.6,474.4z M333.2,206.2c-1.8-2-4.4-3.2-7.1-3.2c-2.7,0-5.3,1.2-7.1,3.2l-4.6,5.2V121
			h23.4v90.5L333.2,206.2z M65.1,125.9c0-22.2,18.1-40.3,40.3-40.3h376.7c-3.2,10-7.2,25.7-7.2,40.3c0,14.6,4.1,30.3,7.2,40.3H352.7
			V121h67.8c4.1,0,7.5-3.3,7.5-7.5c0-4.1-3.3-7.5-7.5-7.5H296.8c-4.1,0-7.5,3.3-7.5,7.5c0,4.1,3.3,7.5,7.5,7.5h2.6v45.2H105.4
			C83.2,166.2,65.1,148.1,65.1,125.9L65.1,125.9z"/>
		<path class="st0" d="M220.2,279h164.5c4.1,0,7.5-3.3,7.5-7.5c0-4.1-3.3-7.5-7.5-7.5H220.2c-4.1,0-7.5,3.3-7.5,7.5
			C212.8,275.7,216.1,279,220.2,279z"/>
		<path class="st0" d="M296.8,431.6c-4.1,0-7.5,3.3-7.5,7.5c0,4.1,3.3,7.5,7.5,7.5h33.6c4.1,0,7.5-3.3,7.5-7.5
			c0-4.1-3.3-7.5-7.5-7.5H296.8z"/>
		<path class="st0" d="M136.9,431.6c-4.1,0-7.5,3.3-7.5,7.5c0,4.1,3.4,7.5,7.5,7.5H264c4.1,0,7.5-3.3,7.5-7.5c0-4.1-3.3-7.5-7.5-7.5
			H136.9z"/>
		<path class="st0" d="M246.4,121h19.2c4.1,0,7.5-3.3,7.5-7.5c0-4.1-3.3-7.5-7.5-7.5h-19.2c-4.1,0-7.5,3.3-7.5,7.5
			C238.9,117.6,242.2,121,246.4,121L246.4,121z"/>
		<path class="st0" d="M114.1,325.9c3.9,2,8.4,1.6,11.9-1l23.6-17.3l23.6,17.3c5.8,5,18.3,0.8,18.2-9.2v-67h22
			c4.1,0,7.5-3.3,7.5-7.5s-3.4-7.5-7.5-7.5H89.8c-4.1,0-7.5,3.3-7.5,7.5s3.4,7.5,7.5,7.5h18.1v67C107.9,320.1,110.3,324,114.1,325.9
			L114.1,325.9z M176.5,308.8l-22.4-16.4c-1.3-1-2.9-1.4-4.4-1.4s-3.1,0.5-4.4,1.4l-22.4,16.4v-60.1h53.7L176.5,308.8L176.5,308.8z"
			/>
	</g>
</g>
</svg>
