<svg width="50" height="50" viewBox="0 0 50 50" fill="none" xmlns="http://www.w3.org/2000/svg">
<g clip-path="url(#clip0)">
<path d="M48.3124 23.529H44.5541C44.7994 23.125 44.965 22.672 45.0339 22.1945C45.0339 22.1947 45.034 22.1948 45.034 22.195H45.5411C47.1091 22.195 48.3847 20.9194 48.3847 19.3514V18.7492C48.3847 17.7613 47.581 16.9576 46.593 16.9576H45.0547C44.951 16.1719 44.2784 15.5631 43.4649 15.5631H37.8271C36.9421 15.5631 36.2219 16.2832 36.2219 17.1683V21.6943C36.2219 22.3551 36.4083 22.9861 36.7379 23.529H17.04V22.7344C17.04 21.6492 16.1571 20.7663 15.072 20.7663H9.91445L4.94795 14.9504C5.23633 14.5206 5.40488 14.0039 5.40488 13.4486C5.40488 12.9691 5.27881 12.5187 5.05889 12.1279L10.2812 6.90564L10.3688 6.99324L11.8943 12.2004C12.1987 13.2398 13.5053 13.5754 14.2726 12.8082L14.8744 12.2063C15.1605 11.9203 15.1605 11.4565 14.8745 11.1705C14.5884 10.8845 14.1246 10.8844 13.8388 11.1705L13.2821 11.727L11.8441 6.81853L14.716 3.94656L19.6245 5.38464L16.2599 8.74939C15.9738 9.03543 15.9738 9.49919 16.2599 9.78513C16.546 10.0712 17.0097 10.0712 17.2957 9.78513L20.7056 6.37517C21.0655 6.01531 21.2051 5.50613 21.0791 5.01296C20.9531 4.5198 20.5862 4.14001 20.0978 3.99695L14.8906 2.47146L13.1489 0.729565C12.5276 0.108276 11.5168 0.108472 10.8957 0.729565L8.62715 2.99822C8.00449 3.62097 8.00449 4.62859 8.62715 5.25134L9.24561 5.8698L4.02324 11.0922C3.63242 10.8722 3.18203 10.7462 2.70254 10.7462C1.2123 10.7462 0 11.9585 0 13.4486C0 14.9387 1.2123 16.151 2.70244 16.151C3.10645 16.151 3.48965 16.0613 3.83418 15.9017L7.98828 20.7663H7.11328C6.02812 20.7663 5.14522 21.6492 5.14522 22.7344V23.529H1.72549C0.794922 23.529 0.037793 24.286 0.037793 25.2167V26.9923C0.037793 27.9228 0.794922 28.68 1.72549 28.68H3.39482L2.74785 36.7229H1.32852C0.616797 36.7229 0.037793 37.3019 0.037793 38.0135V39.4155C0.037793 40.1271 0.616797 40.7061 1.32852 40.7061H2.42754L1.84453 47.9547C1.76738 48.9139 2.52666 49.7365 3.48887 49.7365H4.23555C5.08916 49.7365 5.81143 49.07 5.87988 48.2191L6.48418 40.706H13.1717L13.776 48.2191C13.8444 49.0699 14.5667 49.7365 15.4203 49.7365H16.167C17.1291 49.7365 17.8886 48.9138 17.8112 47.9546L17.2282 40.706H18.3273C19.039 40.706 19.618 40.127 19.618 39.4154V38.0135C19.618 37.3018 19.039 36.7228 18.3273 36.7228H16.9079L16.2609 28.6799H42.7814V48.1116C42.7814 49.0075 43.5104 49.7364 44.4063 49.7364H45.4349C46.3309 49.7364 47.0598 49.0075 47.0598 48.1116V36.361C47.0598 35.9565 46.7319 35.6286 46.3273 35.6286C45.9228 35.6286 45.5949 35.9565 45.5949 36.361V48.1117C45.5949 48.1999 45.5231 48.2717 45.4349 48.2717H44.4062C44.3181 48.2717 44.2462 48.1999 44.2462 48.1117V28.68H45.5948V32.937C45.5948 33.3415 45.9227 33.6694 46.3272 33.6694C46.7318 33.6694 47.0597 33.3415 47.0597 32.937V28.68H48.3124C49.243 28.68 50 27.9229 50 26.9923V25.2167C50 24.2861 49.243 23.529 48.3124 23.529ZM9.66289 4.03396L11.9314 1.76531C11.9815 1.71521 12.0628 1.71501 12.1129 1.76531L13.4692 3.12166L11.019 5.57185L9.66289 4.2156C9.61289 4.1655 9.6123 4.08464 9.66289 4.03396ZM2.70244 14.6862C2.02002 14.6862 1.46484 14.131 1.46484 13.4486C1.46484 12.7662 2.02002 12.211 2.70244 12.211C3.38486 12.211 3.94014 12.7662 3.94014 13.4486C3.94014 14.131 3.38486 14.6862 2.70244 14.6862ZM46.9197 18.7492V19.3514C46.9197 20.1117 46.3013 20.7302 45.541 20.7302H45.0701V18.4224H46.593C46.7731 18.4224 46.9197 18.569 46.9197 18.7492ZM37.6866 17.1683C37.6866 17.0909 37.7496 17.0279 37.827 17.0279H43.4648C43.5423 17.0279 43.6053 17.0909 43.6053 17.1683V21.6943C43.6053 22.4663 43.1752 23.1714 42.4986 23.529H38.7933C38.1167 23.1714 37.6866 22.4663 37.6866 21.6943V17.1683ZM6.61006 22.7344C6.61006 22.4569 6.83584 22.2311 7.11328 22.2311H15.072C15.3495 22.2311 15.5752 22.4569 15.5752 22.7344V23.529H6.61006V22.7344ZM4.41973 48.1016C4.41201 48.1969 4.33115 48.2717 4.23545 48.2717H3.48877C3.37988 48.2717 3.2959 48.1793 3.30449 48.0721L3.89697 40.7061H5.01455L4.41973 48.1016ZM16.167 48.2717H15.4203C15.3247 48.2717 15.2437 48.1969 15.236 48.1016L14.6411 40.7061H15.7586L16.3511 48.0722C16.3597 48.179 16.2762 48.2717 16.167 48.2717ZM18.153 38.1878V39.2413H1.50264V38.1878H13.6432H13.6441H13.6453H16.2302H16.2312H16.2323H18.153ZM4.21738 36.7229L4.86436 28.68H5.98184L5.33486 36.7229H4.21738ZM6.80449 36.7229L7.45147 28.68H12.2042L12.8512 36.7229H6.80449ZM13.6737 28.68H14.7913L15.4383 36.7229H14.3208L13.6737 28.68ZM48.5352 26.9923C48.5352 27.1151 48.4353 27.2151 48.3124 27.2151H1.72549C1.60254 27.2151 1.50264 27.1152 1.50264 26.9923V25.2167C1.50264 25.0938 1.60254 24.9938 1.72549 24.9938H48.3124C48.4353 24.9938 48.5352 25.0937 48.5352 25.2167V26.9923Z" fill="#A1804E"/>
<path d="M36.577 33.854H24.0747C23.1696 33.854 22.4334 34.5903 22.4334 35.4953C22.4334 37.4241 24.0026 38.9935 25.9315 38.9935H29.5934V45.4679H27.7566C27.0186 45.4679 26.3101 45.7807 25.8129 46.326L23.8206 48.5105C23.548 48.8094 23.5693 49.2726 23.8682 49.5452C24.167 49.8178 24.6303 49.7966 24.9028 49.4975L26.8952 47.313C27.1156 47.0713 27.4296 46.9327 27.7566 46.9327H29.5934V49.0016C29.5934 49.4061 29.9212 49.7341 30.3258 49.7341C30.7304 49.7341 31.0582 49.4061 31.0582 49.0016V46.9327H32.8948C33.222 46.9327 33.5358 47.0713 33.7564 47.313L35.7486 49.4975C36.0214 49.7967 36.4848 49.8175 36.7833 49.5452C37.0822 49.2726 37.1035 48.8094 36.8309 48.5105L34.8387 46.326C34.3413 45.7807 33.6328 45.4679 32.8948 45.4679H31.0582V38.9935H34.72C36.6488 38.9935 38.2181 37.4242 38.2181 35.4953C38.2182 34.5903 37.4819 33.854 36.577 33.854ZM34.7201 37.5286H25.9316C24.8105 37.5286 23.8984 36.6165 23.8984 35.4953C23.8984 35.3979 23.9776 35.3188 24.0748 35.3188H36.577C36.6742 35.3188 36.7534 35.398 36.7534 35.4953C36.7533 36.6165 35.8413 37.5286 34.7201 37.5286Z" fill="#A1804E"/>
</g>
<defs>
<clipPath id="clip0">
<rect width="50" height="50" fill="white"/>
</clipPath>
</defs>
</svg>
