<svg width="50" height="50" viewBox="0 0 50 50" fill="none" xmlns="http://www.w3.org/2000/svg">
<path d="M26.5789 46.8418C27.015 46.8418 27.3684 46.4883 27.3684 46.0523V42.8944C27.3684 42.4584 27.0149 42.105 26.5789 42.105C26.1429 42.105 25.7895 42.4585 25.7895 42.8944V46.0523C25.7895 46.4884 26.143 46.8418 26.5789 46.8418Z" fill="#A1804E"/>
<path d="M35 46.8418C35.436 46.8418 35.7894 46.4883 35.7894 46.0523V42.8944C35.7894 42.4584 35.4359 42.105 35 42.105C34.5639 42.105 34.2105 42.4585 34.2105 42.8944V46.0523C34.2105 46.4884 34.5639 46.8418 35 46.8418Z" fill="#A1804E"/>
<path d="M30.7895 46.8418C31.2255 46.8418 31.5789 46.4883 31.5789 46.0523V42.8944C31.5789 42.4584 31.2254 42.105 30.7895 42.105C30.3534 42.105 30 42.4585 30 42.8944V46.0523C30 46.4884 30.3535 46.8418 30.7895 46.8418Z" fill="#A1804E"/>
<path d="M45 3.15791H20.5263V2.89473C20.5263 1.29854 19.2278 0 17.6315 0H9.21055C7.61436 0 6.31582 1.29854 6.31582 2.89473V3.15791H5C2.24307 3.15791 0 5.40098 0 8.15791V39.7368C0 42.4938 2.24307 44.7368 5 44.7368H20.7284L21.2383 46.4367C21.8778 48.568 23.8023 50 26.0274 50H35.5515C37.7766 50 39.7012 48.568 40.3405 46.4367L40.8505 44.7368H45C47.7569 44.7368 50 42.4938 50 39.7368V8.15791C50 5.40098 47.7569 3.15791 45 3.15791ZM7.89473 2.89473C7.89473 2.16914 8.48496 1.57891 9.21055 1.57891H17.6316C18.3572 1.57891 18.9475 2.16914 18.9475 2.89473V9.47363H7.89473V2.89473ZM1.57891 8.15791C1.57891 6.27158 3.11367 4.73682 5 4.73682H6.31582V9.47363H1.57891V8.15791ZM39.5123 43.7028C39.5085 43.7143 39.5051 43.7259 39.5019 43.7375L38.8282 45.9831C38.3907 47.4413 37.0739 48.4211 35.5515 48.4211H26.0274C24.505 48.4211 23.1882 47.4413 22.7507 45.9832L22.0771 43.7376C22.0738 43.7259 22.0704 43.7144 22.0666 43.7029L21.1137 40.5263H40.4652L39.5123 43.7028ZM20.0709 38.9474C20.059 38.9471 20.0469 38.9471 20.0349 38.9474H19.7367C19.0111 38.9474 18.4209 38.3571 18.4209 37.6315C18.4209 36.906 19.0111 36.3157 19.7367 36.3157H25.7894V38.9473H20.0709V38.9474ZM27.3685 38.9474V36.3158H41.8422C42.5678 36.3158 43.158 36.9061 43.158 37.6316C43.158 38.3572 42.5678 38.9475 41.8422 38.9475H41.544C41.532 38.9472 41.5199 38.9472 41.508 38.9475H27.3685V38.9474ZM27.3685 34.7368V31.3157C27.3685 29.4294 28.9032 27.8946 30.7896 27.8946C32.6759 27.8946 34.2106 29.4294 34.2106 31.3157V34.7368H27.3685ZM48.4211 39.7368C48.4211 41.6231 46.8863 43.1579 45 43.1579H41.3242L42.1176 40.5133C43.5851 40.3741 44.7368 39.1349 44.7368 37.6316C44.7368 36.0354 43.4383 34.7369 41.8421 34.7369H35.7895V31.3158C35.7895 28.5589 33.5464 26.3158 30.7895 26.3158C28.0325 26.3158 25.7895 28.5589 25.7895 31.3158V34.7369H19.7368C18.1406 34.7369 16.8421 36.0354 16.8421 37.6316C16.8421 39.1349 17.9938 40.3741 19.4613 40.5133L20.2547 43.1579H5C3.11367 43.1579 1.57891 41.6231 1.57891 39.7368V11.0526H48.421V39.7368H48.4211ZM48.4211 9.47373H20.5263V4.73682H45C46.8863 4.73682 48.4211 6.27158 48.4211 8.15791V9.47373Z" fill="#A1804E"/>
<path d="M40.7895 6.26318C40.3534 6.26318 40 6.6167 40 7.05264V7.15791C40 7.59394 40.3535 7.94736 40.7895 7.94736C41.2254 7.94736 41.5789 7.59385 41.5789 7.15791V7.05264C41.5789 6.6166 41.2255 6.26318 40.7895 6.26318Z" fill="#A1804E"/>
<path d="M43.9474 6.26318C43.5113 6.26318 43.1579 6.6167 43.1579 7.05264V7.15791C43.1579 7.59394 43.5114 7.94736 43.9474 7.94736C44.3834 7.94736 44.7368 7.59385 44.7368 7.15791V7.05264C44.7368 6.6166 44.3834 6.26318 43.9474 6.26318Z" fill="#A1804E"/>
<path d="M20.6842 16.3157H43.8421C44.2781 16.3157 44.6315 15.9622 44.6315 15.5263C44.6315 15.0902 44.278 14.7368 43.8421 14.7368H20.6842C20.2481 14.7368 19.8947 15.0903 19.8947 15.5263C19.8947 15.9622 20.2482 16.3157 20.6842 16.3157Z" fill="#A1804E"/>
<path d="M37.6316 6.26318C37.1955 6.26318 36.8421 6.6167 36.8421 7.05264V7.15791C36.8421 7.59394 37.1956 7.94736 37.6316 7.94736C38.0676 7.94736 38.421 7.59385 38.421 7.15791V7.05264C38.4211 6.6166 38.0676 6.26318 37.6316 6.26318Z" fill="#A1804E"/>
<path d="M8.05262 39.4737H14.3684C14.8045 39.4737 15.1579 39.1202 15.1579 38.6843C15.1579 38.2482 14.8044 37.8948 14.3684 37.8948H8.05262C7.32704 37.8948 6.7368 37.3046 6.7368 36.579V22.8947C6.7368 22.1691 7.32704 21.5789 8.05262 21.5789H41.7368C42.4624 21.5789 43.0526 22.1691 43.0526 22.8947V32.3685C43.0526 32.8045 43.4061 33.1579 43.8421 33.1579C44.2781 33.1579 44.6315 32.8044 44.6315 32.3685V22.8947C44.6315 21.2985 43.333 20 41.7368 20H8.05262C6.45643 20 5.1579 21.2985 5.1579 22.8947V36.5789C5.1579 38.1752 6.45643 39.4737 8.05262 39.4737Z" fill="#A1804E"/>
<path d="M5.94735 16.3157H13.3158C13.7518 16.3157 14.1053 15.9622 14.1053 15.5263C14.1053 15.0902 13.7517 14.7368 13.3158 14.7368H5.94735C5.51132 14.7368 5.1579 15.0903 5.1579 15.5263C5.1579 15.9622 5.51132 16.3157 5.94735 16.3157Z" fill="#A1804E"/>
</svg>
