<?xml version="1.0" encoding="utf-8"?>
<!-- Generator: Adobe Illustrator 24.1.2, SVG Export Plug-In . SVG Version: 6.00 Build 0)  -->
<svg version="1.1" id="Слой_1" xmlns="http://www.w3.org/2000/svg" xmlns:xlink="http://www.w3.org/1999/xlink" x="0px" y="0px"
	 viewBox="0 0 512 490" style="enable-background:new 0 0 512 490;" xml:space="preserve">
<style type="text/css">
	.st0{fill:#626262;}
</style>
<g>
	<path class="st0" d="M455.3,0.6H56.6c-31,0-56.1,24.3-56.2,54.2v281.7c0,29.9,25.2,54.2,56.2,54.2h191v82.8h-90.4
		c-4.6,0-8.4,3.6-8.4,8.1c0,4.5,3.7,8.1,8.4,8.1h203.2c4.6,0,8.4-3.6,8.4-8.1c0-4.5-3.7-8.1-8.4-8.1h-96.1v-82.8h191
		c31,0,56.1-24.3,56.2-54.2V54.8C511.4,24.9,486.3,0.7,455.3,0.6z M56.6,16.8h398.7c21.8,0,39.4,17.1,39.4,38.1v232.9H17.2V54.8
		C17.2,33.8,34.8,16.8,56.6,16.8z M455.3,374.6H56.6c-21.8,0-39.4-17.1-39.4-38.1v-32.7h477.5v32.7
		C494.7,357.5,477.1,374.5,455.3,374.6z"/>
	<path class="st0" d="M135.5,199c30.8,0,57.6-20.6,64.3-49.7c6.8-29-8.2-58.7-36.1-71.5c-27.9-12.7-61.2-5.2-80.2,18.3
		c-20.1,24.8-18.4,60,4,82.9C100,191.8,117.4,199,135.5,199z M96.7,106.1c14.8-18.3,41.1-23.5,62.3-12.5s30.9,35.3,23,57.2
		c-7.8,21.9-30.9,35.2-54.7,31.4s-41.1-23.6-41.1-46.8C86.3,124.8,89.9,114.5,96.7,106.1z"/>
	<path class="st0" d="M119.9,153.3c2.9,3.3,8.1,3.8,11.6,1l32.2-25.3c3.6-2.8,4.1-7.9,1.2-11.3c-2.9-3.4-8.1-4-11.7-1.2l-25.8,20.3
		l-8.5-9.6c-3-3.4-8.3-3.8-11.8-0.9c-3.5,2.9-3.9,8-0.9,11.4L119.9,153.3z"/>
	<path class="st0" d="M77.9,229h113.5c4.6,0,8.4-3.6,8.4-8.1c0-4.5-3.7-8.1-8.4-8.1H77.9c-4.6,0-8.4,3.6-8.4,8.1
		C69.5,225.4,73.3,229,77.9,229z"/>
	<path class="st0" d="M77.9,263.6h66.9c4.6,0,8.4-3.6,8.4-8.1c0-4.5-3.7-8.1-8.4-8.1H77.9c-4.6,0-8.4,3.6-8.4,8.1
		C69.5,260,73.3,263.6,77.9,263.6z"/>
	<path class="st0" d="M295.9,253.7H420c16.5,0,29.9-13,29.9-28.9c0-0.5,0-0.9-0.1-1.4l-20.1-109.7c-1.5-9-9.5-15.6-18.9-15.5H402
		v-7.8c0-23.5-19.7-42.5-44-42.5c-24.3,0-44,19-44,42.5v7.8h-8.8c-9.4,0-17.4,6.6-18.9,15.5l-20.1,109.7c-0.1,0.5-0.1,0.9-0.1,1.4
		C266,240.8,279.4,253.7,295.9,253.7z M330.7,90.4c0-14.6,12.2-26.4,27.3-26.4c15.1,0,27.3,11.8,27.3,26.4v7.8h-54.6V90.4z
		 M302.7,116.4c0,0,0-0.1,0-0.2c0.2-1.1,1.2-2,2.4-2h8.8v14.6c0,4.5,3.7,8.1,8.4,8.1c4.6,0,8.4-3.6,8.4-8.1v-14.6h54.6v14.6
		c0,4.5,3.7,8.1,8.4,8.1c4.6,0,8.4-3.6,8.4-8.1v-14.6h8.8c1.2,0,2.2,0.8,2.4,2c0,0.1,0,0.1,0,0.2l20,109
		c-0.4,6.8-6.2,12.1-13.2,12.1H295.9c-7,0-12.9-5.3-13.2-12.1L302.7,116.4z"/>
</g>
</svg>
