<svg width="50" height="50" viewBox="0 0 50 50" fill="none" xmlns="http://www.w3.org/2000/svg">
<g clip-path="url(#clip0)">
<path d="M27.442 45.9965H27.0002V26.1451H39.1076C40.4341 26.1451 41.5132 25.066 41.5132 23.7396C41.5132 22.4131 40.4341 21.334 39.1076 21.334H16.8715C16.467 21.334 16.1391 21.6619 16.1391 22.0664C16.1391 22.4709 16.467 22.7988 16.8715 22.7988H39.1076C39.6264 22.7988 40.0483 23.2208 40.0483 23.7396C40.0483 24.2583 39.6264 24.6803 39.1076 24.6803H10.8891C10.3703 24.6803 9.94834 24.2583 9.94834 23.7396C9.94834 23.2208 10.3703 22.7988 10.8891 22.7988H13.0347C13.4392 22.7988 13.7671 22.4709 13.7671 22.0664C13.7671 21.6619 13.4392 21.334 13.0347 21.334H10.8891C9.5626 21.334 8.4835 22.4131 8.4835 23.7396C8.4835 25.066 9.5626 26.1451 10.8891 26.1451H22.9965V45.9966H22.5546C19.9789 45.9966 19.9748 50.0003 22.5546 50.0003H27.442C30.0177 50.0002 30.0219 45.9965 27.442 45.9965ZM27.442 48.5354H22.5546C21.8605 48.5354 21.8605 47.4613 22.5546 47.4613H23.7289C24.1334 47.4613 24.4613 47.1334 24.4613 46.7289V26.1732H25.5354V46.7289C25.5354 47.1334 25.8633 47.4613 26.2678 47.4613H27.442C28.1362 47.4613 28.1362 48.5354 27.442 48.5354Z" fill="#A1804E"/>
<path d="M18.91 32.6548C18.9632 30.884 17.979 29.1631 16.0009 29.1631H4.00371V13.2187C4.00371 10.6498 0 10.6133 0 13.2187V47.9626C0 50.5304 4.00371 50.5442 4.00371 47.9626V36.4304H15.7279V47.9982C15.7279 50.5738 19.7316 50.5779 19.7316 47.9982V34.0829C19.7315 33.4742 19.4005 32.9426 18.91 32.6548ZM16.001 30.628C16.9811 30.628 17.54 31.5325 17.4452 32.4267H4.00371V30.628H16.001ZM18.2667 47.9982C18.2667 48.6923 17.1927 48.6923 17.1927 47.9982V35.698C17.1927 35.2935 16.8647 34.9655 16.4603 34.9655H3.27129C2.8668 34.9655 2.53887 35.2935 2.53887 35.698V47.9626C2.53887 48.6631 1.46484 48.6439 1.46484 47.9626V13.2187C1.46484 12.4888 2.53887 12.5383 2.53887 13.2187V33.1591C2.53887 33.5636 2.8668 33.8915 3.27129 33.8915H18.0754C18.181 33.8915 18.2668 33.9774 18.2668 34.0829V47.9982H18.2667Z" fill="#A1804E"/>
<path d="M47.9981 11.2168C46.8943 11.2168 45.9963 12.1148 45.9963 13.2187V29.1631H33.999C32.0287 29.1631 31.0283 30.882 31.0899 32.6548C30.5994 32.9427 30.2684 33.4742 30.2684 34.0829V47.9981C30.2684 50.5738 34.2721 50.5779 34.2721 47.9981V36.4304H45.9963V40.8536C45.9963 41.2581 46.3242 41.586 46.7287 41.586C47.1332 41.586 47.4611 41.2581 47.4611 40.8536V35.698C47.4611 35.2935 47.1332 34.9655 46.7287 34.9655H33.5397C33.1352 34.9655 32.8073 35.2935 32.8073 35.698V47.9981C32.8073 48.6923 31.7333 48.6923 31.7333 47.9981V34.0829C31.7333 33.9773 31.8191 33.8915 31.9247 33.8915H46.7288C47.1333 33.8915 47.4612 33.5636 47.4612 33.1591V13.2187C47.4612 12.5233 48.5352 12.5275 48.5352 13.2187V47.9626C48.5352 48.6889 47.4612 48.6413 47.4612 47.9626V44.7586C47.4612 44.3541 47.1333 44.0262 46.7288 44.0262C46.3243 44.0262 45.9964 44.3541 45.9964 44.7586V47.9626C45.9964 50.5337 50.0001 50.5595 50.0001 47.9626V13.2187C50 12.1148 49.1019 11.2168 47.9981 11.2168ZM32.5549 32.4267C32.4601 31.5325 33.019 30.6279 33.9991 30.6279H45.9964V32.4267H32.5549Z" fill="#A1804E"/>
<path d="M14.4295 12.1094H21.6829C21.9611 13.6887 23.3422 14.8926 25 14.8926C26.6578 14.8926 28.0389 13.6887 28.3171 12.1094H35.5705C35.975 12.1094 36.3029 11.7814 36.3029 11.377C36.3029 10.9725 35.975 10.6445 35.5705 10.6445H33.8334C32.9308 9.26387 31.7109 8.1043 30.2825 7.27607C28.8949 6.47139 27.3351 5.99668 25.7324 5.88535V0.732422C25.7324 0.32793 25.4045 0 25 0C24.5955 0 24.2676 0.32793 24.2676 0.732422V5.88535C22.6649 5.99668 21.1052 6.47139 19.7175 7.27607C18.2892 8.1043 17.0692 9.26387 16.1666 10.6445H14.4295C14.025 10.6445 13.6971 10.9725 13.6971 11.377C13.6971 11.7814 14.025 12.1094 14.4295 12.1094ZM25 13.4277C24.1545 13.4277 23.4367 12.8734 23.1889 12.1094H26.811C26.5633 12.8734 25.8455 13.4277 25 13.4277ZM25 7.32422C27.7228 7.32422 30.3067 8.56982 32.0184 10.6445H17.9816C19.6933 8.56982 22.2773 7.32422 25 7.32422Z" fill="#A1804E"/>
</g>
<defs>
<clipPath id="clip0">
<rect width="50" height="50" fill="white"/>
</clipPath>
</defs>
</svg>
