<?xml version="1.0" encoding="utf-8"?>
<!-- Generator: Adobe Illustrator 24.1.2, SVG Export Plug-In . SVG Version: 6.00 Build 0)  -->
<svg version="1.1" id="Слой_1" xmlns="http://www.w3.org/2000/svg" xmlns:xlink="http://www.w3.org/1999/xlink" x="0px" y="0px"
	 viewBox="0 0 512 490" style="enable-background:new 0 0 512 490;" xml:space="preserve">
<style type="text/css">
	.st0{fill:#626262;}
</style>
<g>
	<g>
		<g>
			<path class="st0" d="M455,30c-3.6-3.6-9.4-3.6-13,0l-95.1,96.1c-3.6,3.6-3.6,9.5,0,13.1c1.8,1.8,4.1,2.7,6.5,2.7
				c2.3,0,4.7-0.9,6.5-2.7L455,43.1C458.6,39.5,458.6,33.6,455,30z"/>
		</g>
	</g>
	<g>
		<g>
			<path class="st0" d="M480.9,55.7c-3.6-3.6-9.4-3.6-13,0l-95.1,96.1c-3.6,3.6-3.6,9.5,0,13.1c1.8,1.8,4.1,2.7,6.5,2.7
				s4.7-0.9,6.5-2.7l95.1-96.1C484.5,65.2,484.5,59.3,480.9,55.7z"/>
		</g>
	</g>
	<g>
		<g>
			<path class="st0" d="M391.2,218.1L509.3,98.7c3.6-3.6,3.6-9.5,0-13.1c-3.6-3.6-9.4-3.6-13,0L378.2,205
				c-14.6,14.7-36.8,18.6-55.4,9.6c-3.7-1.8-8.1-0.9-10.8,2.2l-40.1,45.7c0,0,0,0,0,0.1c0,0,0,0,0,0.1L98.3,460.1
				c0,0.1-0.1,0.1-0.1,0.2c-0.6,0.7-1.1,1.3-1.7,1.8c-11.5,11.6-30.1,11.6-41.5,0c-5.5-5.6-8.6-13.1-8.6-21c0-7.9,3.1-15.4,8.6-21
				c0.5-0.5,1.1-1.1,1.8-1.7c0.1,0,0.1-0.1,0.2-0.1L165.4,321c3.8-3.4,4.1-9.3,0.8-13.1c-3.4-3.8-9.2-4.2-13-0.8L44.8,404.3
				c-1,0.9-2,1.8-2.8,2.6c-9,9.1-14,21.2-14,34.1c0,12.9,5,25,14,34.1c9.3,9.4,21.5,14.1,33.7,14.1c12.2,0,24.4-4.7,33.7-14.1
				c0.9-0.9,1.7-1.8,2.6-2.9l132.2-150.5l132.2,150.5c0.9,1,1.7,2,2.6,2.9c9.3,9.4,21.5,14.1,33.7,14.1c12.2,0,24.4-4.7,33.7-14.1
				c18.6-18.8,18.6-49.4,0-68.2c-0.9-0.9-1.8-1.8-2.8-2.6L291.6,267.9l29.8-33.9C345.5,242.7,372.8,236.6,391.2,218.1z M431.6,418.3
				c0,0,0.1,0.1,0.2,0.1c0.7,0.6,1.3,1.1,1.8,1.7c11.5,11.6,11.5,30.4,0,42c-11.5,11.6-30.1,11.6-41.5,0c-0.5-0.5-1.1-1.1-1.7-1.8
				c0-0.1-0.1-0.1-0.1-0.2L256.6,307.8l22.9-26.1L431.6,418.3z"/>
		</g>
	</g>
	<g>
		<g>
			<path class="st0" d="M427.5,3c-3.6-3.6-9.4-3.6-13,0L296.4,122.3c-18.4,18.6-24.3,46.1-15.8,70.5l-36.3,32.6l-34.9-31.3
				c18.1-35.9,11.5-79.5-17.2-108.5c-28.5-28.8-61.4-49-92.8-57c-32.8-8.3-60.9-2.8-79.1,15.7s-23.8,46.9-15.5,80
				c7.9,31.7,27.9,65,56.4,93.8c28.7,29,71.8,35.6,107.4,17.4c0,0,34.2,38.9,34.6,39.4c1.8,2.1,4.3,3.1,6.9,3.1
				c2.2,0,4.3-0.8,6.1-2.3l81.7-73.3c3.1-2.7,4-7.2,2.2-10.9c-8.9-18.8-5-41.2,9.5-55.9L427.5,16.1C431.1,12.5,431.1,6.6,427.5,3z
				 M210.7,255.6l-33.4-38c-3-3.4-7.9-4.1-11.7-1.7c-29.4,18.3-67.1,13.9-91.5-10.9c-26.2-26.4-44.5-56.7-51.6-85.2
				c-6.6-26.5-2.8-48.7,10.7-62.3c13.5-13.7,35.4-17.5,61.7-10.8c28.2,7.2,58.2,25.7,84.3,52.1c24.5,24.7,28.9,62.8,10.7,92.5
				c-2.3,3.8-1.6,8.8,1.7,11.8l38.8,34.8L210.7,255.6z"/>
		</g>
	</g>
</g>
</svg>
