<?xml version="1.0" encoding="utf-8"?>
<!-- Generator: Adobe Illustrator 24.1.2, SVG Export Plug-In . SVG Version: 6.00 Build 0)  -->
<svg version="1.1" id="Слой_1" xmlns="http://www.w3.org/2000/svg" xmlns:xlink="http://www.w3.org/1999/xlink" x="0px" y="0px"
	 viewBox="0 0 512 490" style="enable-background:new 0 0 512 490;" xml:space="preserve">
<style type="text/css">
	.st0{fill:#626262;}
</style>
<g>
	<path class="st0" d="M164.9,182.7c7,7,18.4,7,25.5,0c7-7,7-18.4,0-25.5c-7-7-18.4-7-25.5,0c-3.4,3.4-5.3,7.9-5.3,12.7
		C159.6,174.8,161.5,179.4,164.9,182.7z M175.3,167.6c1.3-1.3,3.4-1.3,4.7,0c1.3,1.3,1.3,3.4,0,4.7c-1.3,1.3-3.4,1.3-4.7,0
		C174.1,171,174.1,168.9,175.3,167.6L175.3,167.6z"/>
	<path class="st0" d="M455.5,332.4l-17-122.4l0-0.1c-1.9-12.2-12.3-21.1-24.6-21.1H309.8L301,126l0-0.1c-2.1-13.8-14-24-28-24h-26
		V77.3c0-42.4-34.3-76.8-76.7-76.8c-42.4,0-76.7,34.4-76.7,76.8v24.6h-26c-14-0.1-25.9,10.1-28,24l0,0.1L0.5,407.3
		c0,0.3-0.1,0.7-0.1,1c0,27.2,22.1,49.3,49.3,49.4h135.7c4.9,18.7,21.8,31.8,41.2,31.8h202.4c23.5,0,42.5-19.1,42.5-42.6
		c0-0.2,0-0.3,0-0.5c0.6-0.4,1.1-0.8,1.6-1.2l32.2-27.8c7.5-6.5,8.3-17.8,1.9-25.4L455.5,332.4z M108.3,77.3
		c0-34.3,27.8-62.1,62-62.1c34.2,0,62,27.8,62,62.1v24.6h-124V77.3z M15.1,408.8l39.1-280.8c1-6.6,6.8-11.5,13.5-11.5h26v38.5
		c0,4.1,3.3,7.4,7.3,7.4s7.3-3.3,7.3-7.4v-38.5H226L207.9,133c-0.2,0-0.4,0-0.6,0l-45-0.2c-2,0-3.8,0.8-5.2,2.2l-56.6,56.6
		c-7,7-7,18.4,0,25.5l30.1,30.2c7,7,18.4,7,25.5,0l56.6-56.6c1.4-1.4,2.2-3.3,2.2-5.2l-0.2-38.6l17.6-15.9v24.3
		c0,4.1,3.3,7.4,7.3,7.4c4.1,0,7.3-3.3,7.3-7.4v-38.5h26c6.7,0,12.4,4.8,13.5,11.5l8.4,60.7h-53.4c-12.3,0-22.8,8.9-24.6,21.1l0,0.1
		l-32.5,233H49.7C30.8,443,15.4,427.8,15.1,408.8z M200.2,182.3l-54.4,54.4c-1.3,1.3-3.4,1.3-4.7,0L111,206.6
		c-1.3-1.3-1.3-3.4,0-4.7l54.4-54.4l34.7,0.2L200.2,182.3z M428.9,474.9H226.5c-15.2,0-27.6-12.2-27.8-27.4l32.8-235.4
		c0.8-5,5.1-8.6,10.1-8.6h172.3c5,0,9.3,3.6,10.1,8.6l16.2,116.4l-31-2.1L387,299.7c4.1-8.7,6.2-18.2,6.2-27.8v-33.7
		c0-4.1-3.3-7.4-7.3-7.4c-4.1,0-7.3,3.3-7.3,7.4v33.7c0,28.1-22.8,50.9-50.8,50.9c-28.1,0-50.8-22.8-50.8-50.9v-33.7
		c0-4.1-3.3-7.4-7.3-7.4s-7.3,3.3-7.3,7.4v33.7c0,27.9,17.5,52.7,43.8,61.9c26.3,9.2,55.5,0.8,72.8-21l18.3,22.1l-3.3,42.7
		c-0.2,2,0.5,3.9,1.8,5.4l52.1,60.4c2.4,2.7,5.5,4.7,9,5.6C455.6,463.6,443.5,474.8,428.9,474.9z M496.7,404.1
		c-0.1,0.9-0.5,1.7-1.1,2.2l-32.2,27.8c-1.4,1.2-3.4,1-4.6-0.3l-50.1-58.1l2.7-34.4l34.4,2.3l50.1,58.1
		C496.5,402.4,496.8,403.2,496.7,404.1z"/>
	<path class="st0" d="M433.3,347.2c-9.9-0.7-18.5,6.7-19.2,16.6c-0.7,9.9,6.7,18.5,16.6,19.3c0.5,0,0.9,0,1.3,0
		c9.6,0,17.5-7.7,17.9-17.3C450.2,356.1,442.9,347.9,433.3,347.2L433.3,347.2z M434.1,367.6c-1.4,1.2-3.4,1-4.6-0.3
		c-1.2-1.4-1-3.4,0.3-4.6c1.4-1.2,3.4-1,4.6,0.3C435.6,364.4,435.5,366.4,434.1,367.6L434.1,367.6z"/>
</g>
</svg>
