<svg width="50" height="50" viewBox="0 0 50 50" fill="none" xmlns="http://www.w3.org/2000/svg">
<path d="M37.1883 43.9379C40.7041 43.9379 43.5643 41.1996 43.5643 37.834V34.0004C44.5116 33.6941 45.1957 32.8357 45.1957 31.8268C45.1957 30.5618 44.1207 29.5327 42.7992 29.5327C41.4778 29.5327 40.4028 30.5618 40.4028 31.8268C40.4028 32.8357 41.0869 33.694 42.0341 34.0004V37.834C42.0341 40.392 39.8602 42.473 37.1883 42.473C34.5163 42.473 32.3425 40.3919 32.3425 37.834V34.0004C33.2896 33.694 33.9737 32.8357 33.9737 31.8268C33.9737 30.5618 32.8987 29.5327 31.5774 29.5327C30.256 29.5327 29.181 30.5618 29.181 31.8268C29.181 32.8357 29.8651 33.694 30.8123 34.0004V37.834C30.8123 41.1996 33.6726 43.9379 37.1883 43.9379ZM42.7992 30.9975C43.2769 30.9975 43.6655 31.3695 43.6655 31.8267C43.6655 32.284 43.2768 32.656 42.7992 32.656C42.3216 32.656 41.933 32.284 41.933 31.8267C41.933 31.3695 42.3216 30.9975 42.7992 30.9975ZM31.5774 30.9975C32.055 30.9975 32.4435 31.3695 32.4435 31.8267C32.4435 32.284 32.0549 32.656 31.5774 32.656C31.0998 32.656 30.7112 32.284 30.7112 31.8267C30.7112 31.3695 31.0998 30.9975 31.5774 30.9975Z" fill="#A1804E"/>
<path d="M2.66917 50H48.0327C49.2034 50 50.1157 49.0252 49.9881 47.9117L49.0948 40.1086C49.0488 39.7064 48.6719 39.4168 48.251 39.4603C47.831 39.5044 47.5278 39.866 47.5738 40.2681L48.4671 48.0712C48.4953 48.3188 48.2931 48.5351 48.0327 48.5351H26.3447H26.3437C26.0853 48.5351 25.8809 48.3209 25.9093 48.0712L28.1159 28.7962C28.1401 28.5838 28.3269 28.4235 28.5502 28.4235H45.8264C46.0496 28.4235 46.2364 28.5838 46.2607 28.7962L47.1826 36.85C47.2286 37.2521 47.6038 37.5421 48.0265 37.4984C48.4465 37.4542 48.7496 37.0926 48.7036 36.6906L47.7817 28.6367C47.6722 27.6802 46.8316 26.9587 45.8264 26.9587H37.362L36.1805 16.6372C36.032 15.3392 34.8914 14.3605 33.5275 14.3605H30.4836V10.1839C30.4836 4.56848 25.7114 0 19.8457 0C13.9801 0 9.20793 4.56848 9.20793 10.1839V14.3605H6.1641C4.8001 14.3605 3.6595 15.3392 3.51097 16.6372L0.01614 47.1667C-0.15677 48.678 1.08176 50 2.66917 50ZM1.53724 47.3262L5.03207 16.7967C5.09552 16.243 5.58222 15.8253 6.1642 15.8253H9.20804V18.5528C8.20852 18.8625 7.48352 19.7618 7.48352 20.8205C7.48352 22.1347 8.60035 23.2039 9.97313 23.2039C11.3459 23.2039 12.4627 22.1347 12.4627 20.8205C12.4627 19.7618 11.7377 18.8625 10.7382 18.5528V15.8253H18.0606C18.4833 15.8253 18.8257 15.4974 18.8257 15.0929C18.8257 14.6884 18.4833 14.3605 18.0606 14.3605H10.7382V10.1839C10.7382 5.37622 14.8239 1.46488 19.8459 1.46488C24.8678 1.46488 28.9535 5.37622 28.9535 10.1839V14.3605H21.6311C21.2084 14.3605 20.866 14.6884 20.866 15.0929C20.866 15.4974 21.2084 15.8253 21.6311 15.8253H28.9535V18.5528C27.954 18.8625 27.2291 19.7618 27.2291 20.8205C27.2291 22.1347 28.3458 23.2039 29.7186 23.2039C31.0914 23.2039 32.2082 22.1347 32.2082 20.8205C32.2082 19.7618 31.4832 18.8625 30.4837 18.5528V15.8253H33.5276C34.1095 15.8253 34.5962 16.2429 34.6596 16.7967L35.8228 26.9587H28.5503C27.545 26.9587 26.7043 27.6802 26.595 28.6368L24.3884 47.9119C24.3644 48.1216 24.3838 48.3574 24.4261 48.5352H2.66917C1.99079 48.5351 1.46328 47.9733 1.53724 47.3262ZM9.97302 19.902C10.5022 19.902 10.9324 20.314 10.9324 20.8205C10.9324 21.327 10.5021 21.739 9.97302 21.739C9.44399 21.739 9.0136 21.327 9.0136 20.8205C9.0136 20.314 9.44389 19.902 9.97302 19.902ZM29.7185 19.902C30.2476 19.902 30.6779 20.314 30.6779 20.8205C30.6779 21.327 30.2475 21.739 29.7185 21.739C29.1894 21.739 28.7592 21.327 28.7592 20.8205C28.7592 20.314 29.1895 19.902 29.7185 19.902Z" fill="#A1804E"/>
</svg>
