<svg width="24" height="24" viewBox="0 0 24 24" fill="none" xmlns="http://www.w3.org/2000/svg">
<path d="M5.4375 8.71875C5.69623 8.71875 5.90625 8.50873 5.90625 8.25C5.90625 7.99127 5.69623 7.78125 5.4375 7.78125C5.17877 7.78125 4.96875 7.99127 4.96875 8.25C4.96875 8.50873 5.17877 8.71875 5.4375 8.71875Z" fill="#A1804E"/>
<path d="M1.40625 24H22.5938C23.3692 24 24 23.3692 24 22.5938V3.28125C24 2.5058 23.3692 1.875 22.5938 1.875H21.8438V1.40625C21.8438 0.630798 21.213 0 20.4375 0C19.662 0 19.0312 0.630798 19.0312 1.40625V1.875H16.2188V1.40625C16.2188 0.630798 15.588 0 14.8125 0C14.037 0 13.4062 0.630798 13.4062 1.40625V1.875H10.5938V1.40625C10.5938 0.630798 9.96295 0 9.1875 0C8.41205 0 7.78125 0.630798 7.78125 1.40625V1.875H4.96875V1.40625C4.96875 0.630798 4.33795 0 3.5625 0C2.78705 0 2.15625 0.630798 2.15625 1.40625V1.875H1.40625C0.630798 1.875 0 2.5058 0 3.28125V22.5938C0 23.3692 0.630798 24 1.40625 24ZM22.5938 23.0625H1.40625C1.14771 23.0625 0.9375 22.8523 0.9375 22.5938V6.84375H23.0625V22.5938C23.0625 22.8523 22.8523 23.0625 22.5938 23.0625ZM19.9688 1.40625C19.9688 1.14771 20.179 0.9375 20.4375 0.9375C20.696 0.9375 20.9062 1.14771 20.9062 1.40625V1.875H19.9688V1.40625ZM14.3438 1.40625C14.3438 1.14771 14.554 0.9375 14.8125 0.9375C15.071 0.9375 15.2812 1.14771 15.2812 1.40625V1.875H14.3438V1.40625ZM8.71875 1.40625C8.71875 1.14771 8.92896 0.9375 9.1875 0.9375C9.44604 0.9375 9.65625 1.14771 9.65625 1.40625V1.875H8.71875V1.40625ZM3.09375 1.40625C3.09375 1.14771 3.30396 0.9375 3.5625 0.9375C3.82104 0.9375 4.03125 1.14771 4.03125 1.40625V1.875H3.09375V1.40625ZM1.40625 2.8125H2.15625V3.42188C2.15625 4.19733 2.78705 4.82812 3.5625 4.82812C3.82141 4.82812 4.03125 4.61829 4.03125 4.35938C4.03125 4.10046 3.82141 3.89062 3.5625 3.89062C3.30396 3.89062 3.09375 3.68042 3.09375 3.42188V2.8125H7.78125V3.42188C7.78125 4.19733 8.41205 4.82812 9.1875 4.82812C9.44641 4.82812 9.65625 4.61829 9.65625 4.35938C9.65625 4.10046 9.44641 3.89062 9.1875 3.89062C8.92896 3.89062 8.71875 3.68042 8.71875 3.42188V2.8125H13.4062V3.42188C13.4062 4.19733 14.037 4.82812 14.8125 4.82812C15.0714 4.82812 15.2812 4.61829 15.2812 4.35938C15.2812 4.10046 15.0714 3.89062 14.8125 3.89062C14.554 3.89062 14.3438 3.68042 14.3438 3.42188V2.8125H19.0312V3.42188C19.0312 4.19733 19.662 4.82812 20.4375 4.82812C20.6964 4.82812 20.9062 4.61829 20.9062 4.35938C20.9062 4.10046 20.6964 3.89062 20.4375 3.89062C20.179 3.89062 19.9688 3.68042 19.9688 3.42188V2.8125H22.5938C22.8523 2.8125 23.0625 3.02271 23.0625 3.28125V5.90625H0.9375V3.28125C0.9375 3.02271 1.14771 2.8125 1.40625 2.8125Z" fill="#A1804E"/>
<path d="M7.3125 8.71875H18.5625C18.8214 8.71875 19.0312 8.50891 19.0312 8.25C19.0312 7.99109 18.8214 7.78125 18.5625 7.78125H7.3125C7.05359 7.78125 6.84375 7.99109 6.84375 8.25C6.84375 8.50891 7.05359 8.71875 7.3125 8.71875Z" fill="#A1804E"/>
<path d="M20.4375 16.2188H16.6875C16.4286 16.2188 16.2188 16.4286 16.2188 16.6875V20.4375C16.2188 20.6964 16.4286 20.9062 16.6875 20.9062H20.4375C20.6964 20.9062 20.9062 20.6964 20.9062 20.4375V16.6875C20.9062 16.4286 20.6964 16.2188 20.4375 16.2188ZM19.9688 19.9688H17.1562V17.1562H19.9688V19.9688Z" fill="#A1804E"/>
<path d="M13.875 16.2188H10.125C9.86609 16.2188 9.65625 16.4286 9.65625 16.6875V20.4375C9.65625 20.6964 9.86609 20.9062 10.125 20.9062H13.875C14.1339 20.9062 14.3438 20.6964 14.3438 20.4375V16.6875C14.3438 16.4286 14.1339 16.2188 13.875 16.2188ZM13.4062 19.9688H10.5938V17.1562H13.4062V19.9688Z" fill="#A1804E"/>
<path d="M7.3125 16.2188H3.5625C3.30359 16.2188 3.09375 16.4286 3.09375 16.6875V20.4375C3.09375 20.6964 3.30359 20.9062 3.5625 20.9062H7.3125C7.57141 20.9062 7.78125 20.6964 7.78125 20.4375V16.6875C7.78125 16.4286 7.57141 16.2188 7.3125 16.2188ZM6.84375 19.9688H4.03125V17.1562H6.84375V19.9688Z" fill="#A1804E"/>
<path d="M7.3125 10.5938H3.5625C3.30359 10.5938 3.09375 10.8036 3.09375 11.0625V14.8125C3.09375 15.0714 3.30359 15.2812 3.5625 15.2812H7.3125C7.57141 15.2812 7.78125 15.0714 7.78125 14.8125V11.0625C7.78125 10.8036 7.57141 10.5938 7.3125 10.5938ZM6.84375 14.3438H4.03125V11.5312H6.84375V14.3438Z" fill="#A1804E"/>
<path d="M13.875 10.5938H10.125C9.86609 10.5938 9.65625 10.8036 9.65625 11.0625V14.8125C9.65625 15.0714 9.86609 15.2812 10.125 15.2812H13.875C14.1339 15.2812 14.3438 15.0714 14.3438 14.8125V11.0625C14.3438 10.8036 14.1339 10.5938 13.875 10.5938ZM13.4062 14.3438H10.5938V11.5312H13.4062V14.3438Z" fill="#A1804E"/>
<path d="M20.4375 10.5938H16.6875C16.4286 10.5938 16.2188 10.8036 16.2188 11.0625V14.8125C16.2188 15.0714 16.4286 15.2812 16.6875 15.2812H20.4375C20.6964 15.2812 20.9062 15.0714 20.9062 14.8125V11.0625C20.9062 10.8036 20.6964 10.5938 20.4375 10.5938ZM19.9688 14.3438H17.1562V11.5312H19.9688V14.3438Z" fill="#A1804E"/>
</svg>
