<svg width="54" height="54" viewBox="0 0 54 54" fill="none" xmlns="http://www.w3.org/2000/svg">
<g clip-path="url(#clip0)">
<path d="M53.8918 24.9105L47.9736 14.7651C47.8916 14.6244 47.768 14.5125 47.6199 14.4446L27.3292 5.14466C27.1199 5.04879 26.8792 5.04879 26.67 5.14466L6.37915 14.4446C6.23108 14.5125 6.10757 14.6244 6.02541 14.7651L0.107244 24.9105C-0.0051859 25.1034 -0.0310258 25.3348 0.0363688 25.5477C0.103763 25.7606 0.257959 25.9351 0.460881 26.0281L20.7517 35.328C21.1217 35.4976 21.5596 35.3588 21.7646 35.0075L26.2085 27.3894V46.9034L7.49976 38.3286V31.7028C7.49976 31.266 7.1457 30.9118 6.70874 30.9118C6.27179 30.9118 5.91773 31.266 5.91773 31.7028V38.8363C5.91773 39.1457 6.09797 39.4265 6.37915 39.5554L26.67 48.8554C26.7746 48.9034 26.8871 48.9274 26.9996 48.9274C27.112 48.9274 27.2245 48.9033 27.3292 48.8554L47.62 39.5554C47.9011 39.4265 48.0814 39.1457 48.0814 38.8363V31.7031C48.0814 31.2662 47.7273 30.912 47.2904 30.912C46.8534 30.912 46.4994 31.2662 46.4994 31.7031V38.3287L27.7906 46.9035V27.3895L32.2345 35.0076C32.3805 35.2579 32.6447 35.4002 32.9182 35.4002C33.0288 35.4002 33.1408 35.377 33.2473 35.3281L53.5381 26.0282C53.7412 25.9352 53.8954 25.7606 53.9627 25.5478C54.03 25.3349 54.0043 25.1034 53.8918 24.9105ZM20.7593 33.5913L1.91361 24.9537L7.03074 16.1814L25.8764 24.819L20.7593 33.5913ZM26.9996 23.5935L8.60718 15.1637L26.9996 6.73386L45.3918 15.1637L26.9996 23.5935ZM33.2398 33.5913L28.1227 24.819L46.9683 16.1814L52.0854 24.9537L33.2398 33.5913Z" fill="#A1804E"/>
</g>
<defs>
<clipPath id="clip0">
<rect width="54" height="54" fill="white"/>
</clipPath>
</defs>
</svg>
