<svg width="54" height="54" viewBox="0 0 54 54" fill="none" xmlns="http://www.w3.org/2000/svg">
<path d="M11.7818 36.3544C10.8794 36.3544 10.1454 37.0884 10.1454 37.9908C10.1454 38.8932 10.8794 39.6273 11.7818 39.6273C12.6842 39.6273 13.4183 38.8932 13.4183 37.9908C13.4183 37.0884 12.6842 36.3544 11.7818 36.3544Z" fill="#A1804E"/>
<path d="M45.6 36.3544C44.6976 36.3544 43.9635 37.0884 43.9635 37.9908C43.9635 38.8932 44.6976 39.6273 45.6 39.6273C46.5023 39.6273 47.2364 38.8932 47.2364 37.9908C47.2364 37.0884 46.5023 36.3544 45.6 36.3544Z" fill="#A1804E"/>
<path d="M52.3029 25.8642L46.2127 23.8341L43.3662 16.0064C43.0109 15.0292 42.0736 14.3727 41.0338 14.3727H33.7092V12.6273C33.7092 11.7249 32.9751 10.9908 32.0727 10.9908H1.63645C0.734062 10.9908 0 11.725 0 12.6274V35.4546C0 36.357 0.734062 37.0911 1.63645 37.0911H6.84598C6.79282 37.3832 6.76361 37.6837 6.76361 37.9909C6.76361 40.758 9.01484 43.0093 11.7819 43.0093C14.549 43.0093 16.8002 40.758 16.8002 37.9909C16.8002 37.6836 16.771 37.3832 16.7179 37.0911H40.6642C40.6111 37.3832 40.5818 37.6837 40.5818 37.9909C40.5818 40.758 42.8331 43.0093 45.6002 43.0093C48.3672 43.0093 50.6185 40.758 50.6185 37.9909C50.6185 37.6001 50.5721 37.22 50.4872 36.8546L52.161 36.0177C53.2953 35.4504 54 34.31 54 33.0415V28.2187C54 27.1489 53.318 26.2026 52.3029 25.8642ZM1.58203 12.6274C1.58203 12.5973 1.60639 12.5729 1.63645 12.5729H32.0727C32.1028 12.5729 32.1272 12.5972 32.1272 12.6273V29.5908H1.58203V12.6274ZM11.7818 41.4272C9.88706 41.4272 8.34553 39.8857 8.34553 37.9909C8.34553 36.0962 9.88706 34.5547 11.7818 34.5547C13.6766 34.5547 15.2181 36.0962 15.2181 37.9909C15.2182 39.8857 13.6767 41.4272 11.7818 41.4272ZM32.1272 35.509H16.1407C15.2756 33.9956 13.6464 32.9726 11.7818 32.9726C9.91723 32.9726 8.28816 33.9956 7.423 35.509H1.63645C1.60639 35.509 1.58203 35.4846 1.58203 35.4545V31.1728H32.1272V35.509ZM42.8939 19.3366L44.4707 23.6727H42.7722L41.1955 19.3366H42.8939ZM33.7092 15.9547H41.0338C41.4108 15.9547 41.7506 16.1928 41.8795 16.547L42.3186 17.7544H33.7092V15.9547ZM33.7092 19.3366H39.5121L41.0888 23.6727H33.7092V19.3366ZM45.5999 41.4272C43.7052 41.4272 42.1637 39.8857 42.1637 37.9909C42.1637 36.0962 43.7052 34.5547 45.5999 34.5547C47.4947 34.5547 49.0362 36.0962 49.0362 37.9909C49.0362 39.8857 47.4947 41.4272 45.5999 41.4272ZM52.418 29.5907H51.5181C51.0813 29.5907 50.7271 29.9448 50.7271 30.3817C50.7271 30.8185 51.0813 31.1727 51.5181 31.1727H52.418V33.0414C52.418 33.7069 52.0483 34.305 51.4532 34.6027L49.8874 35.3856C49.0056 33.9399 47.4137 32.9726 45.5999 32.9726C43.7354 32.9726 42.1063 33.9956 41.2411 35.509H33.7092V31.1728H48.1364C48.5732 31.1728 48.9274 30.8187 48.9274 30.3818C48.9274 29.9449 48.5732 29.5908 48.1364 29.5908H33.7092V25.2546H45.4716L51.8027 27.365C52.1707 27.4876 52.418 27.8307 52.418 28.2186V29.5907Z" fill="#A1804E"/>
<path d="M26.547 20.395L20.6288 17.0133C20.2496 16.7965 19.7664 16.9284 19.5495 17.3076C19.3328 17.687 19.4645 18.1702 19.8439 18.3869L23.1759 20.2909H7.55457C7.11771 20.2909 6.76355 20.6451 6.76355 21.0819C6.76355 21.5188 7.11771 21.8729 7.55457 21.8729H23.1759L19.8439 23.7769C19.4646 23.9936 19.3328 24.4768 19.5495 24.8561C19.6955 25.1116 19.9624 25.2548 20.2371 25.2548C20.3702 25.2548 20.5051 25.2212 20.6288 25.1504L26.547 21.7686C26.7933 21.6278 26.9455 21.3658 26.9455 21.0818C26.9455 20.7979 26.7934 20.5359 26.547 20.395Z" fill="#A1804E"/>
</svg>
