<svg width="54" height="54" viewBox="0 0 54 54" fill="none" xmlns="http://www.w3.org/2000/svg">
<path d="M52.1201 24.2216L50.6183 23.8462V23.6181C50.6183 17.3095 48.1616 11.3785 43.7007 6.91759C39.2398 2.45668 33.3086 0 27 0C20.6914 0 14.7602 2.45668 10.2993 6.91759C5.83843 11.3785 3.38175 17.3095 3.38175 23.6181V23.8462L1.87987 24.2216C0.77298 24.4985 0 25.4885 0 26.6295V32.4435C0 33.5844 0.773086 34.5746 1.87987 34.8513L3.46549 35.2477C3.74794 36.3077 4.71593 37.091 5.86375 37.091H6.70929C8.07785 37.091 9.19118 35.9776 9.19118 34.6091V24.4639C9.19118 23.0953 8.07775 21.982 6.70929 21.982H5.86375C5.5658 21.982 5.27998 22.0348 5.01514 22.1316C5.78243 10.6714 15.349 1.58203 27 1.58203C38.651 1.58203 48.2176 10.6714 48.9849 22.1315C48.72 22.0347 48.4342 21.9819 48.1363 21.9819H47.2907C45.9221 21.9819 44.8088 23.0953 44.8088 24.4638V34.609C44.8088 35.9776 45.9223 37.0909 47.2907 37.0909H48.1363C48.3846 37.0909 48.6245 37.0538 48.8509 36.9856C47.706 44.2821 41.3767 49.8815 33.7636 49.8815H32.597C32.1364 48.8846 31.1276 48.1907 29.9591 48.1907H27.4227C25.8211 48.1907 24.5181 49.4936 24.5181 51.0953C24.5181 52.6969 25.8211 54 27.4227 54H29.9591C31.4359 54 32.6579 52.8919 32.8396 51.4637H33.7636C42.8494 51.4637 50.2777 44.237 50.6056 35.2298L52.1201 34.8512C53.2269 34.5745 54 33.5844 54 32.4433V26.6294C54 25.4885 53.227 24.4985 52.1201 24.2216ZM5.86375 23.5639H6.70929C7.20552 23.5639 7.60915 23.9677 7.60915 24.4638V34.609C7.60915 35.1053 7.20552 35.5089 6.70929 35.5089H5.86375C5.36752 35.5089 4.96389 35.1052 4.96389 34.609V29.5363C4.96389 29.0995 4.60983 28.7453 4.17287 28.7453C3.73591 28.7453 3.38186 29.0995 3.38186 29.5363V33.5959L2.26368 33.3164C1.86226 33.216 1.58203 32.8571 1.58203 32.4433V26.6294C1.58203 26.2157 1.86226 25.8567 2.26368 25.7563L3.38186 25.4768V26.1544C3.38186 26.5912 3.73591 26.9454 4.17287 26.9454C4.60983 26.9454 4.96389 26.5912 4.96389 26.1544V24.4638C4.96378 23.9677 5.36752 23.5639 5.86375 23.5639ZM29.9591 52.418H27.4227C26.6934 52.418 26.1001 51.8247 26.1001 51.0953C26.1001 50.366 26.6934 49.7727 27.4227 49.7727H29.9591C30.6885 49.7727 31.2817 50.366 31.2817 51.0953C31.2817 51.8247 30.6885 52.418 29.9591 52.418ZM52.418 32.4433C52.418 32.857 52.1377 33.216 51.7363 33.3164L50.6181 33.5959V29.5363C50.6181 29.0995 50.2641 28.7453 49.8271 28.7453C49.3902 28.7453 49.0361 29.0995 49.0361 29.5363V34.609C49.0361 35.1053 48.6325 35.5089 48.1363 35.5089H47.2907C46.7945 35.5089 46.3909 35.1052 46.3909 34.609V24.4638C46.3909 23.9676 46.7945 23.5639 47.2907 23.5639H48.1363C48.6325 23.5639 49.0361 23.9677 49.0361 24.4638V26.1544C49.0361 26.5912 49.3902 26.9454 49.8271 26.9454C50.2641 26.9454 50.6181 26.5912 50.6181 26.1544V25.4768L51.7363 25.7563C52.1377 25.8567 52.418 26.2156 52.418 26.6294V32.4433Z" fill="#A1804E"/>
</svg>
