<svg width="54" height="54" viewBox="0 0 54 54" fill="none" xmlns="http://www.w3.org/2000/svg">
<path d="M50.6726 4.22729H3.32743C1.49259 4.22729 0 5.71989 0 7.55462V39.6818C0 41.5165 1.49259 43.0091 3.32743 43.0091H19.3403L18.6926 48.1907H16.0091C15.5721 48.1907 15.2181 48.5448 15.2181 48.9817C15.2181 49.4185 15.5721 49.7727 16.0091 49.7727H37.9909C38.4279 49.7727 38.7819 49.4185 38.7819 48.9817C38.7819 48.5448 38.4279 48.1907 37.9909 48.1907H35.3075L34.6597 43.0091H50.6726C52.5073 43.0091 54 41.5165 54 39.6818V7.55462C54 5.71989 52.5074 4.22729 50.6726 4.22729ZM20.287 48.1907L20.9348 43.0091H23.8461L24.1317 44.1513C24.4614 45.47 25.6409 46.3909 27.0001 46.3909C28.3593 46.3909 29.5388 45.47 29.8685 44.1513L30.1541 43.0091H33.0654L33.713 48.1907H20.287ZM25.4767 43.0091H28.5232L28.3335 43.7676C28.1803 44.3807 27.632 44.8088 26.9999 44.8088C26.3678 44.8088 25.8196 44.3806 25.6662 43.7676L25.4767 43.0091ZM52.418 39.6818C52.418 40.6442 51.635 41.4271 50.6726 41.4271H3.32743C2.36503 41.4271 1.58203 40.6442 1.58203 39.6818V7.55462C1.58203 6.59222 2.36503 5.80933 3.32743 5.80933H50.6726C51.635 5.80933 52.418 6.59222 52.418 7.55462V39.6818Z" fill="#A1804E"/>
<path d="M44.7544 7.60913H4.17273C3.73577 7.60913 3.38171 7.96319 3.38171 8.40015V38.8363C3.38171 39.2733 3.73577 39.6273 4.17273 39.6273H5.86371C6.30067 39.6273 6.65473 39.2733 6.65473 38.8363C6.65483 38.3995 6.30067 38.0453 5.86382 38.0453H4.96385V9.19116H44.7544C45.1913 9.19116 45.5454 8.837 45.5454 8.40015C45.5454 7.96319 45.1913 7.60913 44.7544 7.60913Z" fill="#A1804E"/>
<path d="M49.8272 7.60913H48.1363C47.6993 7.60913 47.3452 7.96319 47.3452 8.40015C47.3452 8.837 47.6993 9.19116 48.1363 9.19116H49.0362V38.0453H9.24561C8.80865 38.0453 8.45459 38.3995 8.45459 38.8363C8.45459 39.2733 8.80865 39.6273 9.24561 39.6273H49.8271C50.2641 39.6273 50.6181 39.2733 50.6181 38.8363V8.40015C50.6183 7.96319 50.2641 7.60913 49.8272 7.60913Z" fill="#A1804E"/>
<path d="M37.7684 16.3671C37.6263 16.1854 37.4118 16.0748 37.1815 16.0644L18.5817 15.2189C18.5671 15.2182 18.5529 15.2179 18.5382 15.2181C18.4281 14.8567 18.1954 14.5432 17.8805 14.3331L15.6027 12.8146C15.2393 12.5723 14.7481 12.6705 14.5058 13.0341C14.2636 13.3976 14.3618 13.8887 14.7252 14.1309L17.0029 15.6493C17.0137 15.6564 17.0216 15.6673 17.0252 15.6798L19.9265 25.8344C20.017 26.151 20.1659 26.4356 20.3571 26.6813L19.2956 28.8044C19.04 29.3154 19.0668 29.9106 19.3672 30.3966C19.4761 30.5728 19.6143 30.7229 19.773 30.8431C19.5653 31.2058 19.4458 31.6254 19.4458 32.0726C19.4458 33.4411 20.5592 34.5544 21.9277 34.5544C23.2961 34.5544 24.4096 33.441 24.4096 32.0726C24.4096 31.7552 24.349 31.4519 24.24 31.1727H31.4516C31.3425 31.4519 31.282 31.7552 31.282 32.0726C31.282 33.4411 32.3954 34.5544 33.7639 34.5544C35.1324 34.5544 36.2458 33.441 36.2458 32.0726C36.2458 31.6756 36.1516 31.3004 35.9852 30.9673C36.1449 30.8226 36.2458 30.6142 36.2458 30.3817C36.2458 29.9448 35.8917 29.5907 35.4548 29.5907H20.759C20.7477 29.5907 20.7286 29.5907 20.7127 29.5648C20.6967 29.5391 20.7053 29.5221 20.7103 29.5119L21.6882 27.5562C21.8873 27.6073 22.0946 27.635 22.3068 27.635C22.4046 27.635 22.5033 27.6292 22.6027 27.6176L33.7176 26.31C35.1531 26.141 36.3081 25.0753 36.5916 23.6578L37.9212 17.0097C37.9664 16.7835 37.9106 16.5488 37.7684 16.3671ZM33.7637 31.1729C34.2599 31.1729 34.6635 31.5766 34.6635 32.0728C34.6635 32.569 34.2599 32.9726 33.7637 32.9726C33.2675 32.9726 32.8638 32.569 32.8638 32.0728C32.8638 31.5765 33.2675 31.1729 33.7637 31.1729ZM21.9275 31.1729C22.4237 31.1729 22.8273 31.5765 22.8273 32.0728C22.8273 32.569 22.4237 32.9726 21.9275 32.9726C21.4312 32.9726 21.0276 32.569 21.0276 32.0728C21.0276 31.5765 21.4312 31.1729 21.9275 31.1729ZM19.9877 20.2909L18.9964 16.8215L22.1588 16.9652L22.7072 20.2909H19.9877ZM22.4179 26.0464C21.9768 26.0983 21.5692 25.8263 21.4475 25.3999L20.4397 21.8729H22.968L23.6326 25.9035L22.4179 26.0464ZM27.0546 25.5009L25.2055 25.7185L24.5716 21.873H27.0546V25.5009ZM27.0546 20.2909H24.3106L23.7744 17.0387L27.0546 17.1879V20.2909ZM31.0605 25.0296L28.6366 25.3147V21.8729H31.3462L31.0605 25.0296ZM31.4895 20.2909H28.6366V17.2597L31.751 17.4012L31.4895 20.2909ZM35.0402 23.3478C34.8915 24.0911 34.2856 24.6502 33.5327 24.7388L32.6661 24.8408L32.9347 21.873H35.3351L35.0402 23.3478ZM35.6516 20.2909H33.078L33.3331 17.4731L36.1891 17.603L35.6516 20.2909Z" fill="#A1804E"/>
</svg>
