<svg width="54" height="54" viewBox="0 0 54 54" fill="none" xmlns="http://www.w3.org/2000/svg">
<g clip-path="url(#clip0)">
<path d="M38.8364 0H15.1637C13.329 0 11.8363 1.49259 11.8363 3.32743V16.8544C11.8364 17.2913 12.1905 17.6454 12.6274 17.6454C13.0644 17.6454 13.4184 17.2914 13.4184 16.8544V3.32743C13.4184 2.36503 14.2014 1.58203 15.1638 1.58203H38.8364C39.7988 1.58203 40.5818 2.36503 40.5818 3.32743V10.0911C40.5818 10.5281 40.9359 10.8822 41.3728 10.8822C41.8098 10.8822 42.1638 10.5281 42.1638 10.0911V3.32743C42.1637 1.49259 40.6711 0 38.8364 0Z" fill="#A1804E"/>
<path d="M37.9908 45.6544H16.009C15.5721 45.6544 15.218 46.0085 15.218 46.4454C15.218 46.8824 15.5721 47.2365 16.009 47.2365H37.9908C38.4278 47.2365 38.7819 46.8824 38.7819 46.4454C38.7819 46.0085 38.4278 45.6544 37.9908 45.6544Z" fill="#A1804E"/>
<path d="M37.9908 3.38177H16.009C15.5721 3.38177 15.218 3.73583 15.218 4.17279C15.218 4.60975 15.5721 4.96381 16.009 4.96381H37.9908C38.4278 4.96381 38.7819 4.60975 38.7819 4.17279C38.7819 3.73583 38.4278 3.38177 37.9908 3.38177Z" fill="#A1804E"/>
<path d="M27.8454 49.0362H26.1544C25.7175 49.0362 25.3634 49.3903 25.3634 49.8272C25.3634 50.2642 25.7175 50.6182 26.1544 50.6182H27.8454C28.2824 50.6182 28.6364 50.2642 28.6364 49.8272C28.6364 49.3903 28.2824 49.0362 27.8454 49.0362Z" fill="#A1804E"/>
<path d="M15.1639 24.5181H14.3183C12.9498 24.5181 11.8364 25.6315 11.8364 26.9999C11.8364 28.3684 12.9498 29.4818 14.3183 29.4818H15.1639C16.5324 29.4818 17.6458 28.3684 17.6458 26.9999C17.6458 25.6315 16.5323 24.5181 15.1639 24.5181ZM15.1639 27.8998H14.3183C13.8221 27.8998 13.4185 27.4962 13.4185 26.9999C13.4185 26.5037 13.8221 26.1001 14.3183 26.1001H15.1639C15.6601 26.1001 16.0637 26.5037 16.0637 26.9999C16.0637 27.4962 15.6601 27.8998 15.1639 27.8998Z" fill="#A1804E"/>
<path d="M27.8455 24.5181C27.1927 24.5181 26.5983 24.7718 26.1547 25.1855C25.7111 24.7718 25.1167 24.5181 24.4637 24.5181C23.0951 24.5181 21.9818 25.6315 21.9818 26.9999C21.9818 28.3684 23.0952 29.4818 24.4637 29.4818C25.1167 29.4818 25.7111 29.2281 26.1547 28.8144C26.5983 29.2281 27.1927 29.4818 27.8457 29.4818C29.2142 29.4818 30.3275 28.3684 30.3275 26.9999C30.3274 25.6315 29.214 24.5181 27.8455 24.5181ZM25.3635 27.0001V27.0014C25.3627 27.497 24.9593 27.9 24.4636 27.9C23.9674 27.9 23.5637 27.4964 23.5637 27.0002C23.5637 26.5039 23.9674 26.1001 24.4636 26.1001C24.9594 26.1001 25.3627 26.503 25.3635 26.9987V27.0001ZM27.8455 27.8998H27.8454C27.3496 27.8998 26.9464 27.4969 26.9457 27.0012V26.9998V26.9985C26.9463 26.503 27.3497 26.1001 27.8455 26.1001C28.3418 26.1001 28.7454 26.5037 28.7454 26.9999C28.7454 27.4962 28.3419 27.8998 27.8455 27.8998Z" fill="#A1804E"/>
<path d="M14.3183 31.2817H12.6274C12.1905 31.2817 11.8364 31.6358 11.8364 32.0728C11.8364 32.5097 12.1905 32.8638 12.6274 32.8638H14.3183C14.7553 32.8638 15.1093 32.5097 15.1093 32.0728C15.1093 31.6358 14.7553 31.2817 14.3183 31.2817Z" fill="#A1804E"/>
<path d="M24.4636 31.2817H22.7727C22.3357 31.2817 21.9817 31.6358 21.9817 32.0728C21.9817 32.5097 22.3357 32.8638 22.7727 32.8638H24.4636C24.9005 32.8638 25.2546 32.5097 25.2546 32.0728C25.2546 31.6358 24.9005 31.2817 24.4636 31.2817Z" fill="#A1804E"/>
<path d="M19.3908 31.2817H17.7C17.2631 31.2817 16.9089 31.6358 16.9089 32.0728C16.9089 32.5097 17.263 32.8638 17.7 32.8638H19.3908C19.8278 32.8638 20.1818 32.5097 20.1818 32.0728C20.1818 31.6358 19.8278 31.2817 19.3908 31.2817Z" fill="#A1804E"/>
<path d="M29.5365 31.2817H27.8456C27.4086 31.2817 27.0546 31.6358 27.0546 32.0728C27.0546 32.5097 27.4086 32.8638 27.8456 32.8638H29.5365C29.9734 32.8638 30.3275 32.5097 30.3275 32.0728C30.3275 31.6358 29.9733 31.2817 29.5365 31.2817Z" fill="#A1804E"/>
<path d="M43.0636 12.6818H22.7727C21.4041 12.6818 20.2908 13.7953 20.2908 15.1637V16.8547C20.2908 17.0645 20.3741 17.2656 20.5224 17.4141C20.6708 17.5624 20.8719 17.6457 21.0818 17.6457L43.9635 17.6456V19.4453H36.3C35.8631 19.4453 35.509 19.7994 35.509 20.2363C35.509 20.6733 35.8631 21.0274 36.3 21.0274H43.9635V28.6908C43.9635 29.187 43.5598 29.5907 43.0636 29.5907H36.3C35.8631 29.5907 35.509 29.9447 35.509 30.3817C35.509 30.8186 35.8631 31.1727 36.3 31.1727H40.5817V50.6725C40.5817 51.6349 39.7987 52.4179 38.8363 52.4179H15.1637C14.2012 52.4179 13.4182 51.6349 13.4182 50.6725V37.9364H31.2272C32.5957 37.9364 33.7091 36.823 33.7091 35.4545V21.9273C33.7091 20.5588 32.5956 19.4454 31.2272 19.4454H10.9364C9.5678 19.4454 8.45447 20.5589 8.45447 21.9273V35.4545C8.45447 36.8231 9.5679 37.9364 10.9364 37.9364H11.8362V50.6726C11.8362 52.5074 13.3288 54 15.1637 54H38.8362C40.671 54 42.1637 52.5075 42.1637 50.6726V31.1728H43.0635C44.4321 31.1728 45.5454 30.0594 45.5454 28.6909V15.1637C45.5455 13.7953 44.4322 12.6818 43.0636 12.6818ZM10.9364 36.3544C10.4401 36.3544 10.0365 35.9508 10.0365 35.4545V21.9273C10.0365 21.4311 10.4401 21.0275 10.9364 21.0275H31.2273C31.7235 21.0275 32.1271 21.4311 32.1271 21.9273V35.4545C32.1271 35.9508 31.7235 36.3544 31.2273 36.3544H10.9364ZM43.9636 16.0637L21.8729 16.0638V15.1638C21.8729 14.6676 22.2766 14.264 22.7728 14.264H43.0637C43.56 14.264 43.9636 14.6676 43.9636 15.1638V16.0637Z" fill="#A1804E"/>
</g>
<defs>
<clipPath id="clip0">
<rect width="54" height="54" fill="white"/>
</clipPath>
</defs>
</svg>
