<svg width="54" height="54" viewBox="0 0 54 54" fill="none" xmlns="http://www.w3.org/2000/svg">
<g clip-path="url(#clip0)">
<path d="M53.1561 7.5126C53.1377 7.17046 52.901 6.87905 52.5698 6.79088L27.1839 0.0266572C27.0502 -0.00888573 26.9097 -0.00888573 26.7762 0.0266572L1.42981 6.79099C1.09927 6.87927 0.862807 7.16994 0.843822 7.51155C0.826209 7.82796 0.447471 15.3717 3.41399 24.909C5.15749 30.5142 7.70265 35.632 10.9789 40.1203C15.0772 45.7348 20.3338 50.3703 26.6024 53.8983C26.7227 53.966 26.8565 54 26.9903 54C27.1177 54 27.2452 53.9692 27.3614 53.9076C33.6405 50.5723 38.9058 46.0544 43.0108 40.4794C46.2907 36.0248 48.8388 30.892 50.5841 25.2236C53.5522 15.5835 53.1737 7.83776 53.1561 7.5126ZM49.0555 24.8115C47.3596 30.3002 44.8904 35.2652 41.7167 39.5686C38.0148 44.588 33.3338 48.7195 27.7911 51.8655V47.796C34.9766 43.2597 40.3958 36.8381 43.8989 28.7011C46.7834 22.0015 47.7233 15.6417 48.0039 11.4862C48.0294 11.1087 47.784 10.7659 47.4182 10.6685L45.8051 10.2388C45.3831 10.1263 44.9495 10.3772 44.837 10.7995C44.7245 11.2216 44.9754 11.6552 45.3977 11.7676L46.3772 12.0287C46.0527 16.0571 45.0955 21.9209 42.4457 28.0755C39.0901 35.8699 33.916 42.028 27.0626 46.3868C26.3746 45.9319 25.698 45.4572 25.0461 44.9719C24.6959 44.7109 24.2001 44.7834 23.9391 45.1339C23.6782 45.4842 23.7506 45.9799 24.1011 46.2409C24.7823 46.7482 25.4899 47.2427 26.2088 47.7174V51.8397C20.6636 48.5225 15.9813 44.2814 12.2783 39.2168C9.10549 34.8773 6.63732 29.9241 4.94222 24.495C2.50242 16.6802 2.38314 10.0925 2.40845 8.16735L26.2088 1.81561V5.42886L6.59291 10.6639C6.2263 10.7618 5.98077 11.1061 6.00777 11.4847C6.21207 14.3435 6.78708 18.7914 8.36689 23.7473C10.9786 31.9403 15.365 38.7754 21.4043 44.0628C21.5544 44.1943 21.7401 44.2587 21.9252 44.2587C22.1453 44.2587 22.3643 44.1674 22.5208 43.9887C22.8086 43.66 22.7754 43.1601 22.4466 42.8724C16.6273 37.7776 12.3974 31.1813 9.87436 23.2669C8.45707 18.8208 7.87341 14.7964 7.63705 12.0231L26.9814 6.8606L41.9785 10.8567C42.4006 10.969 42.8341 10.7182 42.9466 10.2959C43.059 9.87383 42.8081 9.44025 42.3858 9.32782L27.791 5.43888V1.82585L51.5912 8.16767C51.6173 10.1257 51.5032 16.8899 49.0555 24.8115Z" fill="#A1804E"/>
<path d="M38.9021 18.4841C38.4335 18.0148 37.81 17.7565 37.1466 17.7565C36.4831 17.7565 35.8597 18.0148 35.3915 18.4837L25.309 28.5657L19.8046 23.0617C19.3363 22.5926 18.7127 22.3342 18.0493 22.3342C17.3858 22.3342 16.7625 22.5925 16.2944 23.0612C15.8255 23.53 15.567 24.1533 15.567 24.8165C15.567 25.4797 15.8253 26.1029 16.2942 26.5715L23.5535 33.8309C24.0221 34.3001 24.6454 34.5585 25.3089 34.5585C25.9724 34.5585 26.5958 34.3002 27.064 33.8313L38.9014 21.9939C39.3704 21.5253 39.6288 20.9019 39.6288 20.2387C39.6288 19.5755 39.3705 18.9522 38.9021 18.4841ZM37.7828 20.8749L25.9449 32.7128C25.7753 32.8826 25.5495 32.9761 25.3089 32.9761C25.0684 32.9761 24.8426 32.8826 24.6726 32.7124L17.4128 25.4525C17.2429 25.2827 17.1493 25.0569 17.1493 24.8164C17.1493 24.576 17.2429 24.3503 17.4133 24.1797C17.5829 24.0099 17.8089 23.9164 18.0493 23.9164C18.2897 23.9164 18.5155 24.0099 18.6856 24.18L24.7497 30.2437C25.0587 30.5527 25.5596 30.5526 25.8685 30.2437L36.5108 19.6019C36.6804 19.432 36.9063 19.3385 37.1467 19.3385C37.3872 19.3385 37.6129 19.432 37.7831 19.6024C37.953 19.7722 38.0467 19.9981 38.0467 20.2385C38.0467 20.4788 37.9529 20.7048 37.7828 20.8749Z" fill="#A1804E"/>
</g>
<defs>
<clipPath id="clip0">
<rect width="54" height="54" fill="white"/>
</clipPath>
</defs>
</svg>
